<svg xmlns="http://www.w3.org/2000/svg" xmlns:xlink="http://www.w3.org/1999/xlink" version="1.1" x="0px" y="0px" viewBox="0 0 100 125" enable-background="new 0 0 100 100" xml:space="preserve"><g><path fill="none" d="M49.804,65.615c-5.206,0-9.442,4.236-9.442,9.441c0,0.552,0.072,1.086,0.164,1.611   c0.033,0.188,0.079,0.372,0.123,0.557c0.983,4.16,4.7,7.275,9.156,7.275c4.457,0,8.172-3.115,9.157-7.275   c0.043-0.185,0.09-0.369,0.122-0.558c0.092-0.524,0.164-1.059,0.164-1.61C59.247,69.852,55.01,65.615,49.804,65.615z M58.64,76.289   c-5.781,1.914-11.883,1.913-17.67,0.001c-0.057-0.366-0.107-0.797-0.107-1.233c0-4.931,4.011-8.941,8.942-8.941   c4.931,0,8.943,4.011,8.943,8.941C58.747,75.494,58.698,75.914,58.64,76.289z"/><path fill="none" d="M49.804,33.438c5.206,0,9.443-4.236,9.443-9.441c0-0.552-0.072-1.087-0.164-1.61   c-0.032-0.189-0.079-0.373-0.122-0.558c-0.984-4.16-4.7-7.274-9.157-7.274c-4.456,0-8.172,3.114-9.156,7.273   c-0.044,0.185-0.09,0.369-0.123,0.558c-0.092,0.524-0.164,1.059-0.164,1.611C40.362,29.202,44.598,33.438,49.804,33.438z    M40.97,22.764c5.785-1.913,11.892-1.911,17.669,0c0.058,0.365,0.108,0.795,0.108,1.232c0,4.93-4.012,8.941-8.943,8.941   c-4.931,0-8.942-4.011-8.942-8.941C40.862,23.559,40.913,23.129,40.97,22.764z"/><path fill="none" d="M71.553,45.581c1.739,0,3.448-0.486,4.939-1.404c0.471-0.289,0.889-0.631,1.29-0.985   c0.144-0.127,0.275-0.262,0.41-0.396c3.023-3.02,3.723-7.814,1.387-11.607c-1.731-2.813-4.741-4.493-8.049-4.493   c-1,0-1.985,0.182-2.929,0.496c-0.181,0.061-0.362,0.117-0.539,0.188c-0.508,0.2-1.005,0.433-1.473,0.722   c-2.147,1.321-3.649,3.402-4.232,5.855c-0.584,2.453-0.176,4.988,1.146,7.135C65.233,43.903,68.244,45.581,71.553,45.581z    M62.844,34.071c0.553-2.326,1.977-4.295,4.009-5.546c0.33-0.204,0.698-0.392,1.121-0.57c4.594,3.875,7.867,9.201,9.254,15.056   c-0.293,0.249-0.628,0.513-0.997,0.74c-1.414,0.87-3.031,1.33-4.678,1.33c-3.136,0-5.985-1.59-7.624-4.253   C62.677,38.792,62.291,36.393,62.844,34.071z"/><path fill="none" d="M21.562,44.541c0.417,0.333,0.852,0.649,1.329,0.913c1.395,0.77,2.97,1.177,4.554,1.177   c3.441,0,6.614-1.869,8.276-4.878c2.513-4.558,0.851-10.315-3.707-12.829c-0.47-0.259-0.965-0.464-1.468-0.639   c-0.179-0.062-0.361-0.114-0.543-0.166c-0.827-0.237-1.681-0.374-2.542-0.374c-3.442,0-6.613,1.867-8.275,4.879   c-1.218,2.208-1.506,4.758-0.806,7.179c0.492,1.711,1.465,3.181,2.755,4.342C21.281,44.276,21.41,44.42,21.562,44.541z    M30.662,28.858c0.417,0.156,0.783,0.322,1.112,0.503c4.317,2.381,5.892,7.831,3.511,12.149c-1.574,2.85-4.578,4.62-7.839,4.62   c-1.5,0-2.991-0.385-4.312-1.114c-0.324-0.18-0.648-0.395-1.025-0.684C23.208,38.437,26.233,32.962,30.662,28.858z"/><path fill="none" d="M28.058,53.474c-1.742,0-3.451,0.484-4.942,1.403c-0.468,0.29-0.889,0.626-1.292,0.98   c-0.146,0.129-0.268,0.278-0.406,0.415c-1.229,1.221-2.127,2.734-2.537,4.46c-0.583,2.453-0.175,4.989,1.146,7.135   c1.734,2.814,4.742,4.492,8.049,4.492c1.003,0,1.987-0.181,2.931-0.496c0.18-0.061,0.361-0.117,0.538-0.188   c0.507-0.2,1.002-0.431,1.473-0.722c2.147-1.32,3.651-3.401,4.235-5.854c0.583-2.453,0.176-4.989-1.146-7.137   C34.374,55.153,31.366,53.474,28.058,53.474z M36.767,64.982c-0.554,2.326-1.978,4.295-4.011,5.545   c-0.329,0.203-0.697,0.391-1.121,0.57c-4.595-3.875-7.869-9.202-9.255-15.059c0.357-0.302,0.68-0.539,0.999-0.736   c1.412-0.869,3.03-1.329,4.68-1.329c3.132,0,5.981,1.589,7.623,4.25C36.933,60.258,37.318,62.658,36.767,64.982z"/><path fill="none" d="M78.473,54.892c-0.141-0.127-0.279-0.256-0.429-0.376c-0.414-0.334-0.846-0.653-1.327-0.917   c-1.395-0.77-2.97-1.179-4.55-1.179c-3.445,0-6.615,1.872-8.28,4.883c-2.515,4.557-0.854,10.313,3.703,12.828   c0.471,0.26,0.968,0.462,1.472,0.638c0.179,0.062,0.361,0.113,0.543,0.166c0.826,0.237,1.68,0.374,2.54,0.374   c3.442,0,6.613-1.868,8.274-4.879C82.575,62.524,81.643,57.767,78.473,54.892z M68.946,70.195c-0.431-0.161-0.79-0.323-1.115-0.502   c-4.315-2.382-5.889-7.832-3.507-12.148c1.578-2.853,4.583-4.625,7.843-4.625c1.495,0,2.984,0.386,4.31,1.117   c0.383,0.21,0.732,0.46,1.022,0.685C76.397,60.618,73.372,66.092,68.946,70.195z"/><path fill="none" d="M49.804,8.93c-22.386,0-40.598,18.211-40.598,40.595c0,22.386,18.212,40.598,40.598,40.598   c22.385,0,40.597-18.212,40.597-40.598C90.401,27.142,72.189,8.93,49.804,8.93z M65.402,26.17c0.196-0.122,0.409-0.214,0.614-0.323   c1.698-0.913,3.587-1.418,5.514-1.418c4.101,0,7.83,2.082,9.979,5.57c3.264,5.3,1.746,12.171-3.287,15.695   c-0.188,0.13-0.344,0.291-0.542,0.412c-1.848,1.14-3.968,1.743-6.127,1.743c-4.103,0-7.831-2.083-9.98-5.57   c-1.641-2.662-2.144-5.805-1.42-8.847C60.875,30.388,62.739,27.809,65.402,26.17z M60.002,49.525c0,0.628-0.508,1.135-1.133,1.135   c-0.626,0-1.134-0.507-1.134-1.135c0-0.625,0.508-1.132,1.134-1.132C59.494,48.393,60.002,48.9,60.002,49.525z M38.166,23.301   c0.369-6.125,5.421-11.011,11.638-11.011s11.271,4.886,11.638,11.014c0.013,0.232,0.069,0.454,0.069,0.692   c0,6.457-5.252,11.708-11.708,11.708c-6.455,0-11.708-5.251-11.708-11.708C38.096,23.758,38.152,23.537,38.166,23.301z    M49.804,56.325c-3.75,0-6.798-3.051-6.798-6.8c0-3.747,3.048-6.796,6.798-6.796c3.75,0,6.798,3.049,6.798,6.796   C56.603,53.274,53.555,56.325,49.804,56.325z M50.938,58.591c0,0.626-0.507,1.133-1.134,1.133c-0.626,0-1.133-0.507-1.133-1.133   s0.506-1.133,1.133-1.133C50.431,57.458,50.938,57.965,50.938,58.591z M48.671,40.462c0-0.626,0.506-1.133,1.133-1.133   c0.627,0,1.134,0.507,1.134,1.133c0,0.625-0.507,1.132-1.134,1.132C49.178,41.595,48.671,41.088,48.671,40.462z M41.874,49.525   c0,0.628-0.507,1.135-1.133,1.135c-0.626,0-1.133-0.507-1.133-1.135c0-0.625,0.507-1.132,1.133-1.132   C41.367,48.393,41.874,48.9,41.874,49.525z M17.204,31.529c2.061-3.733,5.992-6.049,10.259-6.049c1.743,0,3.471,0.418,5.047,1.177   c0.202,0.095,0.407,0.175,0.602,0.283c5.651,3.12,7.712,10.255,4.595,15.907c-2.062,3.732-5.994,6.051-10.26,6.051   c-1.967,0-3.919-0.505-5.65-1.461c-0.206-0.112-0.375-0.268-0.57-0.389c-2.427-1.53-4.219-3.834-5.021-6.614   C15.337,37.429,15.693,34.268,17.204,31.529z M34.206,72.886c-0.197,0.12-0.41,0.211-0.614,0.321   c-1.699,0.914-3.585,1.419-5.516,1.419c-4.1,0-7.831-2.083-9.978-5.569c-1.64-2.662-2.144-5.806-1.422-8.848   c0.669-2.818,2.353-5.207,4.709-6.849c0.186-0.13,0.345-0.291,0.541-0.413c1.849-1.138,3.969-1.739,6.131-1.739   c4.101,0,7.831,2.08,9.978,5.567c1.64,2.66,2.145,5.805,1.421,8.846C38.734,68.665,36.868,71.244,34.206,72.886z M61.442,75.751   c-0.367,6.126-5.421,11.014-11.638,11.014s-11.269-4.888-11.638-11.014c-0.014-0.234-0.07-0.456-0.07-0.694   c0-6.456,5.253-11.707,11.708-11.707c6.456,0,11.708,5.251,11.708,11.707C61.512,75.295,61.455,75.517,61.442,75.751z    M72.145,73.573c-1.743,0-3.47-0.417-5.05-1.174c-0.197-0.099-0.405-0.177-0.598-0.283c-5.654-3.122-7.713-10.257-4.592-15.909   c2.061-3.732,5.991-6.053,10.262-6.053c1.964,0,3.917,0.506,5.646,1.462c0.208,0.114,0.372,0.269,0.568,0.393   c5.191,3.28,7.027,10.068,4.021,15.515C80.342,71.256,76.411,73.573,72.145,73.573z"/><path d="M28.058,53.974c-1.65,0-3.269,0.46-4.68,1.329c-0.319,0.197-0.641,0.435-0.999,0.736c1.386,5.856,4.66,11.184,9.255,15.059   c0.424-0.18,0.792-0.367,1.121-0.57c2.033-1.25,3.458-3.219,4.011-5.545c0.552-2.324,0.167-4.725-1.086-6.759   C34.039,55.562,31.189,53.974,28.058,53.974z"/><path d="M71.553,45.081c1.646,0,3.264-0.46,4.678-1.33c0.369-0.227,0.704-0.491,0.997-0.74c-1.387-5.855-4.66-11.181-9.254-15.056   c-0.423,0.179-0.791,0.367-1.121,0.57c-2.032,1.25-3.456,3.22-4.009,5.546c-0.553,2.322-0.167,4.722,1.085,6.757   C65.567,43.491,68.417,45.081,71.553,45.081z"/><path d="M27.445,46.131c3.261,0,6.265-1.771,7.839-4.62c2.381-4.318,0.806-9.769-3.511-12.149   c-0.329-0.181-0.695-0.347-1.112-0.503c-4.428,4.104-7.454,9.579-8.554,15.475c0.377,0.289,0.701,0.504,1.025,0.684   C24.455,45.746,25.946,46.131,27.445,46.131z"/><path d="M72.167,52.92c-3.26,0-6.265,1.772-7.843,4.625c-2.382,4.316-0.809,9.767,3.507,12.148   c0.325,0.179,0.685,0.341,1.115,0.502c4.426-4.104,7.451-9.577,8.553-15.474c-0.29-0.225-0.64-0.475-1.022-0.685   C75.151,53.306,73.662,52.92,72.167,52.92z"/><path d="M49.804,32.938c4.931,0,8.943-4.011,8.943-8.941c0-0.437-0.051-0.867-0.108-1.232c-5.777-1.912-11.884-1.913-17.669,0   c-0.057,0.365-0.107,0.794-0.107,1.232C40.862,28.927,44.874,32.938,49.804,32.938z"/><path d="M49.804,66.115c-4.931,0-8.942,4.011-8.942,8.941c0,0.437,0.051,0.867,0.107,1.233c5.787,1.912,11.889,1.913,17.67-0.001   c0.059-0.375,0.107-0.795,0.107-1.232C58.747,70.126,54.735,66.115,49.804,66.115z"/><path d="M65.911,9.831c-4.978-2.027-10.409-3.166-16.107-3.166c-5.699,0-11.13,1.139-16.108,3.166   C18.025,16.215,6.939,31.59,6.939,49.525c0,17.938,11.086,33.313,26.757,39.697c4.978,2.026,10.409,3.167,16.108,3.167   c5.698,0,11.129-1.141,16.107-3.167c15.671-6.384,26.757-21.76,26.757-39.697C92.668,31.59,81.582,16.215,65.911,9.831z    M49.804,90.123c-22.386,0-40.598-18.212-40.598-40.598c0-22.384,18.212-40.595,40.598-40.595   c22.385,0,40.597,18.211,40.597,40.595C90.401,71.911,72.189,90.123,49.804,90.123z"/><path d="M56.603,49.525c0-3.747-3.048-6.796-6.798-6.796c-3.75,0-6.798,3.049-6.798,6.796c0,3.749,3.048,6.8,6.798,6.8   C53.555,56.325,56.603,53.274,56.603,49.525z"/><circle cx="49.805" cy="40.462" r="1.134"/><circle cx="49.805" cy="58.591" r="1.134"/><circle cx="40.74" cy="49.525" r="1.133"/><circle cx="58.869" cy="49.527" r="1.134"/><path d="M49.804,35.705c6.456,0,11.708-5.251,11.708-11.708c0-0.239-0.057-0.46-0.069-0.692   c-0.367-6.128-5.421-11.014-11.638-11.014s-11.269,4.886-11.638,11.011c-0.014,0.235-0.07,0.457-0.07,0.695   C38.096,30.453,43.349,35.705,49.804,35.705z M40.526,22.386c0.033-0.188,0.079-0.373,0.123-0.558   c0.983-4.159,4.7-7.273,9.156-7.273c4.457,0,8.172,3.114,9.157,7.274c0.043,0.185,0.09,0.369,0.122,0.558   c0.092,0.523,0.164,1.058,0.164,1.61c0,5.206-4.237,9.441-9.443,9.441c-5.206,0-9.442-4.236-9.442-9.441   C40.362,23.444,40.434,22.91,40.526,22.386z"/><path d="M49.804,63.35c-6.455,0-11.708,5.251-11.708,11.707c0,0.238,0.056,0.46,0.07,0.694c0.369,6.126,5.421,11.014,11.638,11.014   s11.271-4.888,11.638-11.014c0.013-0.234,0.069-0.456,0.069-0.694C61.512,68.601,56.26,63.35,49.804,63.35z M59.083,76.667   c-0.032,0.188-0.079,0.373-0.122,0.558c-0.984,4.16-4.7,7.275-9.157,7.275c-4.456,0-8.172-3.115-9.156-7.275   c-0.044-0.185-0.09-0.368-0.123-0.557c-0.092-0.525-0.164-1.06-0.164-1.611c0-5.205,4.236-9.441,9.442-9.441   c5.206,0,9.443,4.236,9.443,9.441C59.247,75.608,59.175,76.143,59.083,76.667z"/><path d="M61.572,42.278c2.149,3.487,5.878,5.57,9.98,5.57c2.159,0,4.279-0.603,6.127-1.743c0.198-0.121,0.354-0.282,0.542-0.412   c5.033-3.524,6.551-10.396,3.287-15.695c-2.148-3.488-5.878-5.57-9.979-5.57c-1.927,0-3.815,0.505-5.514,1.418   c-0.205,0.109-0.418,0.201-0.614,0.323c-2.663,1.639-4.527,4.218-5.25,7.261C59.429,36.473,59.932,39.616,61.572,42.278z    M62.357,33.955c0.583-2.453,2.085-4.534,4.232-5.855c0.468-0.289,0.965-0.521,1.473-0.722c0.177-0.07,0.358-0.127,0.539-0.188   c0.943-0.314,1.929-0.496,2.929-0.496c3.308,0,6.317,1.68,8.049,4.493c2.336,3.793,1.637,8.587-1.387,11.607   c-0.135,0.134-0.267,0.27-0.41,0.396c-0.401,0.354-0.819,0.696-1.29,0.985c-1.491,0.918-3.2,1.404-4.939,1.404   c-3.309,0-6.319-1.678-8.05-4.491C62.182,38.943,61.773,36.408,62.357,33.955z"/><path d="M38.036,56.775c-2.147-3.487-5.877-5.567-9.978-5.567c-2.162,0-4.282,0.602-6.131,1.739   c-0.195,0.122-0.354,0.283-0.541,0.413c-2.357,1.642-4.041,4.03-4.709,6.849c-0.722,3.042-0.218,6.186,1.422,8.848   c2.147,3.486,5.878,5.569,9.978,5.569c1.931,0,3.816-0.505,5.516-1.419c0.204-0.11,0.417-0.201,0.614-0.321   c2.663-1.642,4.529-4.221,5.251-7.265C40.181,62.58,39.675,59.436,38.036,56.775z M37.253,65.099   c-0.584,2.453-2.087,4.534-4.235,5.854c-0.471,0.291-0.966,0.521-1.473,0.722c-0.177,0.071-0.358,0.128-0.538,0.188   c-0.943,0.315-1.928,0.496-2.931,0.496c-3.307,0-6.315-1.678-8.049-4.492c-1.322-2.146-1.729-4.682-1.146-7.135   c0.41-1.726,1.309-3.239,2.537-4.46c0.138-0.137,0.26-0.286,0.406-0.415c0.403-0.354,0.824-0.69,1.292-0.98   c1.492-0.919,3.201-1.403,4.942-1.403c3.309,0,6.316,1.68,8.049,4.488C37.429,60.109,37.835,62.646,37.253,65.099z"/><path d="M78.381,52.009c-0.196-0.124-0.36-0.278-0.568-0.393c-1.729-0.956-3.682-1.462-5.646-1.462   c-4.271,0-8.201,2.32-10.262,6.053c-3.121,5.652-1.062,12.787,4.592,15.909c0.192,0.106,0.4,0.185,0.598,0.283   c1.58,0.757,3.307,1.174,5.05,1.174c4.267,0,8.197-2.317,10.258-6.05C85.408,62.077,83.572,55.289,78.381,52.009z M80.419,66.43   c-1.661,3.011-4.832,4.879-8.274,4.879c-0.86,0-1.714-0.137-2.54-0.374c-0.182-0.053-0.364-0.104-0.543-0.166   c-0.504-0.176-1.001-0.378-1.472-0.638c-4.557-2.515-6.218-8.271-3.703-12.828c1.665-3.011,4.835-4.883,8.28-4.883   c1.58,0,3.155,0.409,4.55,1.179c0.481,0.264,0.913,0.583,1.327,0.917c0.149,0.12,0.288,0.249,0.429,0.376   C81.643,57.767,82.575,62.524,80.419,66.43z"/><path d="M21.226,47.047c0.195,0.121,0.364,0.277,0.57,0.389c1.73,0.956,3.683,1.461,5.65,1.461c4.266,0,8.198-2.319,10.26-6.051   c3.118-5.652,1.056-12.787-4.595-15.907c-0.194-0.108-0.4-0.188-0.602-0.283c-1.576-0.759-3.304-1.177-5.047-1.177   c-4.267,0-8.198,2.316-10.259,6.049c-1.511,2.739-1.866,5.9-0.999,8.904C17.006,43.213,18.798,45.517,21.226,47.047z    M19.188,32.625c1.662-3.012,4.833-4.879,8.275-4.879c0.861,0,1.714,0.136,2.542,0.374c0.182,0.052,0.364,0.104,0.543,0.166   c0.503,0.175,0.998,0.38,1.468,0.639c4.558,2.514,6.22,8.271,3.707,12.829c-1.663,3.01-4.835,4.878-8.276,4.878   c-1.584,0-3.159-0.407-4.554-1.177c-0.477-0.264-0.912-0.581-1.329-0.913c-0.152-0.121-0.281-0.265-0.425-0.395   c-1.29-1.162-2.263-2.631-2.755-4.342C17.681,37.383,17.969,34.833,19.188,32.625z"/></g><text x="0" y="115" fill="#000000" font-size="5px" font-weight="bold" font-family="'Helvetica Neue', Helvetica, Arial-Unicode, Arial, Sans-serif">Created by Adam Lorber</text><text x="0" y="120" fill="#000000" font-size="5px" font-weight="bold" font-family="'Helvetica Neue', Helvetica, Arial-Unicode, Arial, Sans-serif">from the Noun Project</text></svg>